<svg width="79" height="79" viewBox="0 0 79 79" fill="none" xmlns="http://www.w3.org/2000/svg">
<g opacity="0.7">
<rect x="32.1853" y="0.701172" width="56.1132" height="56.1132" rx="11.4446" transform="rotate(35 32.1853 0.701172)" fill="#FF974A" fill-opacity="0.1"/>
<rect opacity="0.5" x="37.4043" y="25.0425" width="2.80566" height="22.8893" rx="1.40283" transform="rotate(35 37.4043 25.0425)" fill="#FF974A"/>
<path d="M39.6212 29.2139C39.8478 28.8903 40.2938 28.8116 40.6174 29.0382L51.7321 36.8208C52.1657 37.1244 52.1308 37.7774 51.6673 38.033L47.3986 40.3877C47.2049 40.4945 47.0715 40.685 47.0373 40.9036L46.2847 45.7202C46.203 46.2431 45.6013 46.4993 45.1677 46.1957L34.0531 38.4131C33.7295 38.1865 33.6508 37.7405 33.8774 37.4169L39.6212 29.2139Z" fill="#FF974A"/>
</g>
</svg>
