<svg width="29" height="54" viewBox="0 0 29 54" fill="none" xmlns="http://www.w3.org/2000/svg">
<g opacity="0.7">
<rect opacity="0.1" x="0.0529785" y="0.0400391" width="53.7621" height="53.7621" rx="10.9651" fill="#FFC542"/>
<path d="M31.8215 36.635L31.8215 38.3255C31.8215 38.9564 31.4134 39.4929 30.844 39.6918L30.844 40.2576C30.844 41.0579 30.1876 41.7067 29.3778 41.7067L24.4903 41.7067C23.6805 41.7067 23.0241 41.0579 23.0241 40.2576L23.0241 39.6918C22.4547 39.4929 22.0466 38.9564 22.0466 38.3255L22.0466 36.635C22.0466 36.2348 22.3749 35.9104 22.7797 35.9104L31.0884 35.9104C31.4933 35.9104 31.8215 36.2348 31.8215 36.635ZM23.0786 33.9784C22.4734 33.9784 21.9285 33.6114 21.7116 33.053C19.34 26.9469 16.1816 27.5621 16.1816 21.4199C16.1816 15.5514 20.9961 10.7935 26.9341 10.7935C32.872 10.7935 37.6865 15.5514 37.6865 21.4199C37.6865 27.5621 34.5281 26.9469 32.1566 33.053C31.9397 33.6114 31.3947 33.9784 30.7895 33.9784L23.0786 33.9784ZM22.0466 21.4199C22.0466 18.7565 24.2391 16.5897 26.9341 16.5897C27.4739 16.5897 27.9116 16.1571 27.9116 15.6236C27.9116 15.0902 27.4739 14.6576 26.9341 14.6576C23.1611 14.6576 20.0916 17.6911 20.0916 21.4199C20.0916 21.9534 20.5293 22.3859 21.0691 22.3859C21.6089 22.3859 22.0466 21.9534 22.0466 21.4199Z" fill="#FFC542"/>
</g>
</svg>
