<svg width="53" height="66" viewBox="0 0 53 66" fill="none" xmlns="http://www.w3.org/2000/svg">
<g opacity="0.7">
<rect opacity="0.1" x="0.914551" y="0.149414" width="53.7621" height="53.7621" rx="10.9651" transform="rotate(15 0.914551 0.149414)" fill="#0062FF"/>
<path d="M27.4151 22.5556C31.0288 23.5239 33.1917 27.1697 32.2461 30.6987C31.3005 34.2278 27.6045 36.3036 23.9908 35.3353C20.377 34.367 18.2141 30.7213 19.1597 27.1922C20.1053 23.6632 23.8014 21.5873 27.4151 22.5556ZM30.9412 37.6782L28.6127 36.4022C24.9721 37.7334 21.3868 36.258 19.4547 33.9483L16.8001 33.8891C14.672 33.8415 12.8013 35.2186 12.2625 37.2292L11.2714 40.9282C10.9472 42.1382 11.6888 43.3882 12.9277 43.7201L29.3792 48.1283C30.6182 48.4603 31.8854 47.7486 32.2096 46.5386L33.2008 42.8396C33.7395 40.829 32.8079 38.701 30.9412 37.6782ZM10.605 33.4445C13.0142 34.09 15.4782 32.7061 16.1086 30.3534C16.739 28.0007 15.297 25.5702 12.8879 24.9247C10.4788 24.2792 8.01472 25.6631 7.38432 28.0158C6.75392 30.3684 8.19588 32.799 10.605 33.4445ZM10.2743 40.6611L11.2655 36.962C11.5354 35.9548 12.0768 35.0789 12.8006 34.3992C10.6919 34.7942 8.71177 33.8715 7.58092 32.5198L5.81122 32.4803C4.39255 32.4485 3.14535 33.3667 2.78621 34.707L2.12543 37.1731C1.90929 37.9797 2.40367 38.813 3.22967 39.0344L10.2196 40.9073C10.2346 40.8245 10.2529 40.7424 10.2743 40.6611Z" fill="#0062FF"/>
</g>
</svg>
