<svg width="14" height="13" viewBox="0 0 14 13" fill="none" xmlns="http://www.w3.org/2000/svg">
<path d="M4.98773 1.64992L5.28849 4.79007L2.16428 5.09236C1.97646 5.11016 1.79395 5.16497 1.62721 5.25366C1.46047 5.34236 1.31275 5.4632 1.19249 5.60929C1.07222 5.75537 0.981749 5.92385 0.926272 6.10508C0.870796 6.28631 0.851415 6.47675 0.869178 6.66552L0.918255 7.16523C0.93596 7.35401 0.990502 7.53743 1.07875 7.70502C1.16699 7.87261 1.28724 8.02109 1.43259 8.14197C1.57793 8.26285 1.74555 8.35377 1.92587 8.40953C2.10618 8.46529 2.29561 8.48479 2.48343 8.46694L5.60767 8.16464L5.90843 11.3048C5.92613 11.4936 5.98067 11.677 6.06892 11.8446C6.15717 12.0122 6.27737 12.1607 6.42272 12.2815C6.56807 12.4024 6.73569 12.4933 6.916 12.5491C7.09631 12.6048 7.28579 12.6244 7.4736 12.6065L7.97078 12.5572C8.15836 12.5394 8.34063 12.4845 8.50706 12.3958C8.67349 12.307 8.82081 12.186 8.94059 12.0398C9.06036 11.8937 9.15023 11.7251 9.205 11.5439C9.25977 11.3627 9.27839 11.1724 9.25977 10.984L8.96516 7.84385L12.0894 7.54155C12.2772 7.52376 12.4597 7.46895 12.6264 7.38025C12.7932 7.29156 12.9409 7.17072 13.0612 7.02463C13.1814 6.87854 13.2719 6.71007 13.3273 6.52884C13.3828 6.34761 13.4022 6.15717 13.3845 5.96839L13.3354 5.46868C13.3177 5.28014 13.2631 5.09697 13.1748 4.92969C13.0865 4.76242 12.9661 4.61433 12.8207 4.49394C12.6752 4.37355 12.5076 4.28324 12.3273 4.22819C12.147 4.17314 11.9577 4.15443 11.7702 4.17315L8.64597 4.46927L8.34522 1.32912C8.32752 1.14034 8.27297 0.956914 8.18473 0.789322C8.09648 0.621731 7.97623 0.473255 7.83089 0.352375C7.68554 0.231494 7.51792 0.140583 7.33761 0.0848232C7.1573 0.0290636 6.96782 0.0095565 6.78001 0.02741L6.28283 0.0767652C6.09501 0.0945601 5.91254 0.149371 5.7458 0.238066C5.57906 0.326762 5.43134 0.447603 5.31108 0.59369C5.19081 0.739778 5.10034 0.908242 5.04486 1.08947C4.98939 1.2707 4.96997 1.46114 4.98773 1.64992Z" fill="#F5F4F5"/>
</svg>
