<svg width="72" height="46" viewBox="0 0 72 46" fill="none" xmlns="http://www.w3.org/2000/svg">
<g opacity="0.7">
<rect opacity="0.1" x="0.602539" y="-3.70508" width="53.7621" height="53.7621" rx="10.9651" transform="rotate(-24.5 0.602539 -3.70508)" fill="#FFC542"/>
<path d="M44.3632 -5.18385L39.505 -2.96986L38.6341 -4.88085C38.3445 -5.51626 37.6118 -5.79966 36.9905 -5.51653L24.2845 0.273926C23.6632 0.557062 23.3963 1.29604 23.6859 1.93144L24.5568 3.84244L19.6986 6.05643C19.0773 6.33957 18.8105 7.07855 19.1 7.71395L20.3193 10.3893C21.0966 12.0949 22.9466 13.3693 25.4033 13.8825C27.369 14.2964 29.4716 14.169 31.4496 13.533C34.0508 15.3536 36.2333 15.5995 36.2333 15.5995L37.8009 19.0393L35.5586 20.0611C33.9096 20.8126 33.0197 22.4125 33.7882 24.099L34.0495 24.6723C34.1932 24.9876 34.563 25.1306 34.8713 24.9901L48.6984 18.6887C49.0067 18.5482 49.1414 18.1753 48.9977 17.86L48.7364 17.2867C47.9679 15.6002 46.1765 15.2223 44.5276 15.9737L42.2853 16.9956L40.7177 13.5558C40.7177 13.5558 41.964 11.7474 42.2965 8.58983C44.0788 7.51214 45.5544 6.00884 46.527 4.25589C47.7467 2.06723 48.0033 -0.167226 47.2261 -1.87279L46.0068 -4.54818C45.7173 -5.18358 44.9845 -5.46699 44.3632 -5.18385ZM26.0204 10.6068C24.4974 10.2854 23.5615 9.58107 23.3089 9.02688L22.9606 8.26249L25.9596 6.89577C26.716 8.43194 27.563 9.69612 28.4343 10.7415C27.6157 10.8145 26.8003 10.7707 26.0204 10.6068ZM44.2364 -0.510329C44.587 0.258846 44.1956 1.59115 43.6499 2.57256C43.262 3.26864 42.7554 3.91492 42.1633 4.4848C41.9459 3.14141 41.5475 1.67287 40.8844 0.0941192L43.8881 -1.27473L44.2364 -0.510329Z" fill="#FFC542"/>
</g>
</svg>
