<svg width="77" height="77" viewBox="0 0 77 77" fill="none" xmlns="http://www.w3.org/2000/svg">
<g opacity="0.7">
<rect opacity="0.1" x="0.565186" y="41.2266" width="53.7621" height="53.7621" rx="10.9651" transform="rotate(-48.5 0.565186 41.2266)" fill="#50B5FF"/>
<path fill-rule="evenodd" clip-rule="evenodd" d="M28.708 27.6719C28.7214 27.6568 28.7314 27.6455 28.738 27.638C28.7447 27.6304 28.7547 27.6191 28.768 27.604C29.1298 27.2255 29.5702 27.0239 30.0891 26.9993C30.608 26.9747 31.0634 27.1357 31.4553 27.4824C31.5156 27.5358 31.5688 27.5896 31.6149 27.6438C31.661 27.698 31.7075 27.7593 31.7544 27.8277L37.3998 35.1602L41.1005 30.9773C41.3406 30.706 41.6355 30.5169 41.9854 30.4099C42.3353 30.303 42.6842 30.2959 43.0321 30.3887C43.3799 30.4815 43.6795 30.6592 43.9308 30.9219C44.1821 31.1845 44.3542 31.4912 44.4469 31.842L48.8871 50.2408C48.9497 50.5649 48.95 50.8608 48.888 51.1283C48.8259 51.3959 48.6949 51.6427 48.4948 51.8688C48.4015 51.9743 48.3039 52.0694 48.2022 52.1541C48.1004 52.2387 47.9869 52.3062 47.8617 52.3567C47.4593 52.5381 47.0378 52.5817 46.5972 52.4875C46.1566 52.3932 45.7971 52.1693 45.5189 51.8156L38.9438 43.6204L35.2206 47.7832C34.9805 48.0545 34.6855 48.2437 34.3356 48.3506C33.9857 48.4576 33.6369 48.4646 33.289 48.3718C32.9411 48.2791 32.6416 48.1013 32.3902 47.8387C32.1389 47.576 31.9669 47.2693 31.8742 46.9186L28.3383 29.3199C28.3366 29.2914 28.3315 29.2668 28.3231 29.2459C28.3147 29.2251 28.3096 29.2004 28.3079 29.172C28.2876 29.0734 28.2782 28.9778 28.2796 28.885C28.2811 28.7923 28.2934 28.7024 28.3166 28.6154C28.3213 28.4583 28.3481 28.3141 28.3971 28.1828C28.4461 28.0515 28.5164 27.9188 28.608 27.7849C28.6347 27.7548 28.6547 27.7322 28.668 27.7171C28.6814 27.702 28.6947 27.6869 28.708 27.6719Z" fill="#50B5FF"/>
</g>
</svg>
